<svg version="1.1" xmlns="http://www.w3.org/2000/svg" viewBox="0 0 1508.3788489736262 824.4444444444443" width="1508.3788489736262" height="824.4444444444443" filter="invert(93%) hue-rotate(180deg)">
  <!-- svg-source:excalidraw -->
  
  <defs>
    <style class="style-fonts">
      @font-face {
        font-family: "Virgil";
        src: url("https://excalidraw.com/Virgil.woff2");
      }
      @font-face {
        font-family: "Cascadia";
        src: url("https://excalidraw.com/Cascadia.woff2");
      }
      @font-face {
        font-family: "Assistant";
        src: url("https://excalidraw.com/Assistant-Regular.woff2");
      }
    </style>
    
  </defs>
  <rect x="0" y="0" width="1508.3788489736262" height="824.4444444444443" fill="#ffffff"></rect><g stroke-linecap="round" transform="translate(688.7222222222226 10) rotate(0 221.1111111111111 402.2222222222222)"><path d="M32 0 C175.4 0.55, 316.74 1.19, 410.22 0 M32 0 C122.82 1.49, 214.37 1.27, 410.22 0 M410.22 0 C432.36 0.98, 442.08 11.01, 442.22 32 M410.22 0 C433.37 0.55, 441.22 11.47, 442.22 32 M442.22 32 C441.86 317.91, 442.45 604.23, 442.22 772.44 M442.22 32 C440.96 210.21, 441.44 387.96, 442.22 772.44 M442.22 772.44 C440.94 792.77, 430.74 805.79, 410.22 804.44 M442.22 772.44 C440.88 793.58, 433.19 806.43, 410.22 804.44 M410.22 804.44 C312.61 802.71, 216.84 802.81, 32 804.44 M410.22 804.44 C269.46 802.94, 129.32 803.2, 32 804.44 M32 804.44 C9.44 805.9, 1.64 793.68, 0 772.44 M32 804.44 C10.85 806.05, -2.14 792.36, 0 772.44 M0 772.44 C0.87 620.24, -0.39 469.25, 0 32 M0 772.44 C-0.11 553.95, -0.2 335.56, 0 32 M0 32 C-1.41 9.52, 12.08 1.74, 32 0 M0 32 C-2.15 12.25, 10.69 -0.38, 32 0" stroke="#f08c00" stroke-width="1" fill="none"></path></g><g transform="translate(838.4416631062829 367.22222222222223) rotate(0 71.39167022705078 45)"><text x="71.39167022705078" y="0" font-family="Virgil, Segoe UI Emoji" font-size="36px" fill="#f08c00" text-anchor="middle" style="white-space: pre;" direction="ltr" dominant-baseline="text-before-edge">Backend</text><text x="71.39167022705078" y="45" font-family="Virgil, Segoe UI Emoji" font-size="36px" fill="#f08c00" text-anchor="middle" style="white-space: pre;" direction="ltr" dominant-baseline="text-before-edge">(wk7)</text></g><g stroke-linecap="round" transform="translate(14.5 60.27777777777811) rotate(0 299.5 128.5)"><path d="M32 0 C228.04 -2.18, 423.52 -0.95, 567 0 M32 0 C141.51 0.29, 250.98 -0.22, 567 0 M567 0 C587.03 1.93, 598.56 8.97, 599 32 M567 0 C588.91 -0.45, 600.9 9.77, 599 32 M599 32 C596.21 94.39, 598.42 157.2, 599 225 M599 32 C601.51 75.66, 600.98 119.32, 599 225 M599 225 C597.6 247.61, 590.33 255.8, 567 257 M599 225 C601.12 247.5, 589.99 257.03, 567 257 M567 257 C406.02 256.15, 244.59 255.02, 32 257 M567 257 C363.21 255.26, 159.92 255.24, 32 257 M32 257 C10.85 256.02, -0.21 247.6, 0 225 M32 257 C11.65 258.47, 1.63 245.6, 0 225 M0 225 C0.38 165.97, 0.09 107.1, 0 32 M0 225 C2.32 164.03, 1.25 102.54, 0 32 M0 32 C0.85 11.45, 9.98 -0.98, 32 0 M0 32 C-2.22 9.8, 10.04 1.58, 32 0" stroke="#1971c2" stroke-width="1" fill="none"></path></g><g transform="translate(223.8000030517578 143.7777777777781) rotate(0 90.19999694824219 45)"><text x="90.19999694824219" y="0" font-family="Virgil, Segoe UI Emoji" font-size="36px" fill="#1971c2" text-anchor="middle" style="white-space: pre;" direction="ltr" dominant-baseline="text-before-edge">Frontend</text><text x="90.19999694824219" y="45" font-family="Virgil, Segoe UI Emoji" font-size="36px" fill="#1971c2" text-anchor="middle" style="white-space: pre;" direction="ltr" dominant-baseline="text-before-edge">(wk1, 8-10)</text></g><g stroke-linecap="round" transform="translate(35 233.7777777777781) rotate(0 115.84808142511167 40)"><path d="M20 0 C89.31 -0.09, 155.82 -0.53, 211.7 0 M20 0 C78.94 0.16, 138.38 0.9, 211.7 0 M211.7 0 C224.88 -1.62, 229.78 5.91, 231.7 20 M211.7 0 C225.84 1, 232.17 6.51, 231.7 20 M231.7 20 C230.9 32.05, 231.3 45.75, 231.7 60 M231.7 20 C231.49 35.98, 231.24 51.41, 231.7 60 M231.7 60 C232.98 74.33, 225.29 81.93, 211.7 80 M231.7 60 C229.42 74.82, 226.83 81.49, 211.7 80 M211.7 80 C159.86 77.68, 111.96 79.53, 20 80 M211.7 80 C142.75 79.55, 72.11 79.18, 20 80 M20 80 C6.5 81.53, -0.6 74.57, 0 60 M20 80 C5.72 82.29, 0.01 74.55, 0 60 M0 60 C-1.08 48.23, 0.52 33.25, 0 20 M0 60 C-0.93 51.33, -1 44.18, 0 20 M0 20 C-0.54 6.15, 5.24 0.24, 20 0 M0 20 C-0.57 6.01, 4.97 0.94, 20 0" stroke="#1971c2" stroke-width="1" fill="none"></path></g><g transform="translate(76.53974707452574 238.7777777777781) rotate(0 74.30833435058594 35)"><text x="74.30833435058594" y="0" font-family="Virgil, Segoe UI Emoji" font-size="28px" fill="#1971c2" text-anchor="middle" style="white-space: pre;" direction="ltr" dominant-baseline="text-before-edge">JavaScript</text><text x="74.30833435058594" y="35" font-family="Virgil, Segoe UI Emoji" font-size="28px" fill="#1971c2" text-anchor="middle" style="white-space: pre;" direction="ltr" dominant-baseline="text-before-edge">(wk2-4)</text></g><g stroke-linecap="round" transform="translate(168.25 377.0277777777781) rotate(0 150.125 42.5)"><path d="M21.25 0 C75.19 -2.25, 129.68 -1.46, 279 0 M21.25 0 C91.71 -0.22, 161.98 -0.71, 279 0 M279 0 C293.8 -0.07, 299.58 7.18, 300.25 21.25 M279 0 C291.18 1.42, 300.8 5.08, 300.25 21.25 M300.25 21.25 C300.16 35.49, 301.87 54.07, 300.25 63.75 M300.25 21.25 C299.76 32.35, 300.95 43.2, 300.25 63.75 M300.25 63.75 C301.78 79.37, 295.14 86.5, 279 85 M300.25 63.75 C300.88 77.51, 292.08 86.85, 279 85 M279 85 C223.77 84.18, 168.66 82.37, 21.25 85 M279 85 C183.57 85.07, 88.97 85.2, 21.25 85 M21.25 85 C5.6 84.45, 1.07 78.72, 0 63.75 M21.25 85 C6.68 87.2, -1.95 76.58, 0 63.75 M0 63.75 C2.09 50.23, 0.1 37.8, 0 21.25 M0 63.75 C0.85 52.09, -0.03 39.73, 0 21.25 M0 21.25 C-0.27 8.84, 7.1 1.44, 21.25 0 M0 21.25 C-2.24 7.34, 8.89 -2.19, 21.25 0" stroke="#1971c2" stroke-width="1" fill="none"></path></g><g transform="translate(195.05833435058594 384.5277777777781) rotate(0 123.31666564941406 35)"><text x="123.31666564941406" y="0" font-family="Virgil, Segoe UI Emoji" font-size="28px" fill="#1971c2" text-anchor="middle" style="white-space: pre;" direction="ltr" dominant-baseline="text-before-edge">HTTP, JSON, API</text><text x="123.31666564941406" y="35" font-family="Virgil, Segoe UI Emoji" font-size="28px" fill="#1971c2" text-anchor="middle" style="white-space: pre;" direction="ltr" dominant-baseline="text-before-edge">(wk5)</text></g><g stroke-linecap="round" transform="translate(10 525.527777777778) rotate(0 299.5 128.5)"><path d="M32 0 C172.23 -0.94, 312.98 -0.96, 567 0 M32 0 C188.22 -0.56, 343.91 -0.81, 567 0 M567 0 C586.41 0.69, 599.26 11.12, 599 32 M567 0 C588.41 1.84, 598.6 12.62, 599 32 M599 32 C599.68 105.98, 598.81 175.69, 599 225 M599 32 C598.33 80.39, 598.55 126.52, 599 225 M599 225 C597.81 247.11, 589.75 257.76, 567 257 M599 225 C597.59 246.94, 588.21 256.65, 567 257 M567 257 C438.29 255.99, 310.27 255.68, 32 257 M567 257 C359.81 257.7, 152.51 257.51, 32 257 M32 257 C10.86 258.14, -1.93 244.54, 0 225 M32 257 C9.55 258.42, 0.58 245.55, 0 225 M0 225 C2.57 170.79, -0.47 115.06, 0 32 M0 225 C1.07 162.97, 0.34 101.36, 0 32 M0 32 C-0.55 12.41, 9.25 1.29, 32 0 M0 32 C-0.53 11.27, 10.33 -0.57, 32 0" stroke="#1971c2" stroke-width="1" fill="none"></path></g><g transform="translate(219.3000030517578 609.027777777778) rotate(0 90.19999694824219 45)"><text x="90.19999694824219" y="0" font-family="Virgil, Segoe UI Emoji" font-size="36px" fill="#1971c2" text-anchor="middle" style="white-space: pre;" direction="ltr" dominant-baseline="text-before-edge">Frontend</text><text x="90.19999694824219" y="45" font-family="Virgil, Segoe UI Emoji" font-size="36px" fill="#1971c2" text-anchor="middle" style="white-space: pre;" direction="ltr" dominant-baseline="text-before-edge">(wk1, 8-10)</text></g><g stroke-linecap="round" transform="translate(28.686262449968126 694.8087175924011) rotate(0 112.92790818938369 40)"><path d="M20 0 C92.49 -0.62, 165.73 -0.52, 205.86 0 M20 0 C69.59 2.01, 121.23 1.89, 205.86 0 M205.86 0 C219.25 1.6, 225.51 8.36, 225.86 20 M205.86 0 C220.9 0.83, 224.04 6.66, 225.86 20 M225.86 20 C224.61 34.51, 224.09 51.3, 225.86 60 M225.86 20 C225.44 35.67, 226.74 50.94, 225.86 60 M225.86 60 C224.63 73.86, 219.09 79.69, 205.86 80 M225.86 60 C224.48 71.73, 217.52 79.16, 205.86 80 M205.86 80 C139.33 79.34, 69.61 80.59, 20 80 M205.86 80 C132.3 81.49, 57.58 80.03, 20 80 M20 80 C5.69 81.23, 0.51 72.65, 0 60 M20 80 C6.23 78.4, -0.89 74.74, 0 60 M0 60 C0.72 47.16, -0.23 36.52, 0 20 M0 60 C-0.08 51.47, -0.51 41.83, 0 20 M0 20 C-0.46 7.19, 6.38 -0.5, 20 0 M0 20 C1.02 8.5, 8.13 -1.74, 20 0" stroke="#1971c2" stroke-width="1" fill="none"></path></g><g transform="translate(67.30583628876587 699.8087175924011) rotate(0 74.30833435058597 35)"><text x="74.30833435058594" y="0" font-family="Virgil, Segoe UI Emoji" font-size="28px" fill="#1971c2" text-anchor="middle" style="white-space: pre;" direction="ltr" dominant-baseline="text-before-edge">JavaScript</text><text x="74.30833435058594" y="35" font-family="Virgil, Segoe UI Emoji" font-size="28px" fill="#1971c2" text-anchor="middle" style="white-space: pre;" direction="ltr" dominant-baseline="text-before-edge">(wk2-4)</text></g><g stroke-linecap="round"><g transform="translate(308.25 316.5277777777781) rotate(0 0.7876221909022547 29.75)"><path d="M-0.38 -0.28 C-0.01 9.54, 1.97 50.17, 2.38 60.07 M1.61 -1.47 C1.89 8.51, 1.86 47.97, 1.85 58.24" stroke="#1971c2" stroke-width="1" fill="none"></path></g><g transform="translate(308.25 316.5277777777781) rotate(0 0.7876221909022547 29.75)"><path d="M-8.32 30.27 C-5.35 40.33, -0.78 48.47, 1.85 58.24 M-8.32 30.27 C-6.13 37.76, -3.54 45.26, 1.85 58.24" stroke="#1971c2" stroke-width="1" fill="none"></path></g><g transform="translate(308.25 316.5277777777781) rotate(0 0.7876221909022547 29.75)"><path d="M12.04 30.28 C8.69 40.27, 6.92 48.41, 1.85 58.24 M12.04 30.28 C8.84 37.7, 6.04 45.19, 1.85 58.24" stroke="#1971c2" stroke-width="1" fill="none"></path></g></g><mask></mask><g stroke-linecap="round"><g transform="translate(295.51891030206093 465.4813573734188) rotate(0 1.3163470840639206 29.375)"><path d="M0.89 0.44 C1.43 9.86, 2.81 47.91, 2.96 57.71 M-0.1 -0.37 C0.33 9.66, 1.47 49.11, 2.19 58.7" stroke="#1971c2" stroke-width="1" fill="none"></path></g><g transform="translate(295.51891030206093 465.4813573734188) rotate(0 1.3163470840639206 29.375)"><path d="M-9.2 31.59 C-5.01 39.64, -4.29 45.26, 2.19 58.7 M-9.2 31.59 C-6.24 41.43, -1.85 49.26, 2.19 58.7" stroke="#1971c2" stroke-width="1" fill="none"></path></g><g transform="translate(295.51891030206093 465.4813573734188) rotate(0 1.3163470840639206 29.375)"><path d="M10.9 30.62 C9.48 39.08, 4.58 44.98, 2.19 58.7 M10.9 30.62 C6.96 40.76, 4.45 48.92, 2.19 58.7" stroke="#1971c2" stroke-width="1" fill="none"></path></g></g><mask></mask><g stroke-linecap="round"><g transform="translate(356.51830502355574 519.2313573734189) rotate(0 1.3539454832750266 -28.101789797820345)"><path d="M0.75 0.33 C1.52 -8.99, 3.12 -46, 3.59 -55.39 M-0.31 -0.55 C0.47 -10.24, 2.51 -48.07, 3.11 -57.09" stroke="#1971c2" stroke-width="1" fill="none"></path></g><g transform="translate(356.51830502355574 519.2313573734189) rotate(0 1.3539454832750266 -28.101789797820345)"><path d="M11.14 -30.13 C9.85 -34.41, 8.93 -40.23, 3.11 -57.09 M11.14 -30.13 C9.01 -38.83, 5.05 -47.96, 3.11 -57.09" stroke="#1971c2" stroke-width="1" fill="none"></path></g><g transform="translate(356.51830502355574 519.2313573734189) rotate(0 1.3539454832750266 -28.101789797820345)"><path d="M-8.07 -31.27 C-5.22 -35.42, -2.02 -41, 3.11 -57.09 M-8.07 -31.27 C-4.22 -39.48, -2.2 -48.26, 3.11 -57.09" stroke="#1971c2" stroke-width="1" fill="none"></path></g></g><mask></mask><g stroke-linecap="round"><g transform="translate(352.2620564139596 373.68397645390434) rotate(0 -9.08501733531017 -31.25)"><path d="M-1.09 -0.7 C-3.91 -11.24, -14.54 -51.95, -17.46 -62.34 M0.54 1.55 C-2.33 -8.85, -14.67 -50.12, -18.04 -60.72" stroke="#1971c2" stroke-width="1" fill="none"></path></g><g transform="translate(352.2620564139596 373.68397645390434) rotate(0 -9.08501733531017 -31.25)"><path d="M0.04 -36.78 C-5.93 -41.88, -9.12 -49.98, -18.04 -60.72 M0.04 -36.78 C-4.49 -42.79, -9.52 -49.13, -18.04 -60.72" stroke="#1971c2" stroke-width="1" fill="none"></path></g><g transform="translate(352.2620564139596 373.68397645390434) rotate(0 -9.08501733531017 -31.25)"><path d="M-19.58 -30.76 C-20.58 -37.22, -18.76 -46.86, -18.04 -60.72 M-19.58 -30.76 C-19.14 -38.38, -19.18 -46.26, -18.04 -60.72" stroke="#1971c2" stroke-width="1" fill="none"></path></g></g><mask></mask><g stroke-linecap="round" transform="translate(1188.8113998373237 360.92663682442554) rotate(0 154.78372456815123 72.5)"><path d="M32 0 C110.92 1.43, 188.05 2.28, 277.57 0 M32 0 C113.68 1, 196.05 0.69, 277.57 0 M277.57 0 C299.59 -0.16, 307.8 12.6, 309.57 32 M277.57 0 C296.91 0.07, 310.46 10.98, 309.57 32 M309.57 32 C309.98 54.79, 311.14 79.16, 309.57 113 M309.57 32 C309.04 62.68, 310.16 93.43, 309.57 113 M309.57 113 C309.44 135.42, 300.08 146.59, 277.57 145 M309.57 113 C309.13 132.68, 297.02 144.3, 277.57 145 M277.57 145 C217.9 143.62, 157.66 145.04, 32 145 M277.57 145 C225.73 143.44, 174.72 143.8, 32 145 M32 145 C8.79 143.72, 1.74 132.58, 0 113 M32 145 C10.57 146.58, 0.62 132.5, 0 113 M0 113 C1.94 88.77, -1.21 63.3, 0 32 M0 113 C1.63 85.19, 0.81 56.84, 0 32 M0 32 C0.07 12.53, 11.37 -1.32, 32 0 M0 32 C2.29 10.8, 10.58 -1.2, 32 0" stroke="#f08c00" stroke-width="1" fill="none"></path></g><g transform="translate(1254.595124405475 388.42663682442554) rotate(0 89 45)"><text x="89" y="0" font-family="Virgil, Segoe UI Emoji" font-size="36px" fill="#f08c00" text-anchor="middle" style="white-space: pre;" direction="ltr" dominant-baseline="text-before-edge">Database</text><text x="89" y="45" font-family="Virgil, Segoe UI Emoji" font-size="36px" fill="#f08c00" text-anchor="middle" style="white-space: pre;" direction="ltr" dominant-baseline="text-before-edge">(wk6)</text></g><g stroke-linecap="round"><g transform="translate(680.9444444444446 76.649135971095) rotate(0 -32.222222222222285 -1.4557278414463326)"><path d="M0.91 -0.58 C-9.97 -1.21, -53.58 -3.2, -64.42 -3.51 M-0.07 1.72 C-11.18 1.22, -54.58 -1.24, -65.35 -2.29" stroke="#f08c00" stroke-width="1" fill="none"></path></g><g transform="translate(680.9444444444446 76.649135971095) rotate(0 -32.222222222222285 -1.4557278414463326)"><path d="M-36.48 -10.45 C-48.14 -7.16, -58.86 -3.6, -65.35 -2.29 M-36.48 -10.45 C-46.87 -6.73, -56.61 -4.26, -65.35 -2.29" stroke="#f08c00" stroke-width="1" fill="none"></path></g><g transform="translate(680.9444444444446 76.649135971095) rotate(0 -32.222222222222285 -1.4557278414463326)"><path d="M-37.99 10.02 C-49.13 5.71, -59.3 1.68, -65.35 -2.29 M-37.99 10.02 C-47.67 6.84, -56.91 2.42, -65.35 -2.29" stroke="#f08c00" stroke-width="1" fill="none"></path></g></g><mask></mask><g stroke-linecap="round"><g transform="translate(613.1666666666667 101.11111111111137) rotate(0 34.88888888888857 1.8361663816984617)"><path d="M-0.16 0.55 C11.57 1.3, 58.48 4.15, 70 4.76 M-1.71 -0.2 C9.92 0.21, 56.98 2.82, 69.17 3.21" stroke="#f08c00" stroke-width="1" fill="none"></path></g><g transform="translate(613.1666666666667 101.11111111111137) rotate(0 34.88888888888857 1.8361663816984617)"><path d="M40.55 12.19 C49.06 10.22, 57.55 6.11, 69.17 3.21 M40.55 12.19 C51.35 9.54, 59.33 6.29, 69.17 3.21" stroke="#f08c00" stroke-width="1" fill="none"></path></g><g transform="translate(613.1666666666667 101.11111111111137) rotate(0 34.88888888888857 1.8361663816984617)"><path d="M41.47 -8.31 C49.78 -4.84, 58.03 -3.5, 69.17 3.21 M41.47 -8.31 C52 -3.92, 59.66 -0.13, 69.17 3.21" stroke="#f08c00" stroke-width="1" fill="none"></path></g></g><mask></mask><g stroke-linecap="round"><g transform="translate(683.8541360373706 730.0451108171787) rotate(0 -35.55555555555543 0.20649302130914293)"><path d="M-0.71 -0.27 C-12.53 0, -58.53 0.67, -70.2 0.6 M1.12 -1.46 C-10.84 -0.87, -58.6 1.99, -70.66 2.24" stroke="#f08c00" stroke-width="1" fill="none"></path></g><g transform="translate(683.8541360373706 730.0451108171787) rotate(0 -35.55555555555543 0.20649302130914293)"><path d="M-42.94 -9.23 C-53.52 -3.72, -62.77 -0.39, -70.66 2.24 M-42.94 -9.23 C-48.1 -7.34, -54.28 -4.66, -70.66 2.24" stroke="#f08c00" stroke-width="1" fill="none"></path></g><g transform="translate(683.8541360373706 730.0451108171787) rotate(0 -35.55555555555543 0.20649302130914293)"><path d="M-42.06 11.28 C-52.77 9.37, -62.35 5.28, -70.66 2.24 M-42.06 11.28 C-47.56 8.89, -53.92 7.29, -70.66 2.24" stroke="#f08c00" stroke-width="1" fill="none"></path></g></g><mask></mask><g stroke-linecap="round"><g transform="translate(610 757.7793949889187) rotate(0 38.48262357424085 0.4984367996141259)"><path d="M0.92 0.19 C13.93 0.22, 64.56 -0.2, 77.39 -0.1 M-0.06 -0.76 C12.89 -0.6, 63.72 0.4, 76.67 0.86" stroke="#f08c00" stroke-width="1" fill="none"></path></g><g transform="translate(610 757.7793949889187) rotate(0 38.48262357424085 0.4984367996141259)"><path d="M48.22 10.38 C55.41 8.58, 60.12 7.11, 76.67 0.86 M48.22 10.38 C56.32 7.66, 63.27 5.28, 76.67 0.86" stroke="#f08c00" stroke-width="1" fill="none"></path></g><g transform="translate(610 757.7793949889187) rotate(0 38.48262357424085 0.4984367996141259)"><path d="M48.75 -10.14 C55.77 -6.99, 60.35 -3.51, 76.67 0.86 M48.75 -10.14 C56.82 -7.07, 63.61 -3.67, 76.67 0.86" stroke="#f08c00" stroke-width="1" fill="none"></path></g></g><mask></mask><g stroke-linecap="round"><g transform="translate(1133.1666666666679 405.82190473706254) rotate(0 26.322366585328837 0.40891085072661326)"><path d="M-0.78 -0.98 C8.09 -0.85, 44.33 0.45, 53.09 0.67 M1.01 1.13 C9.77 1.46, 43.51 2.08, 52.38 2.12" stroke="#f08c00" stroke-width="1" fill="none"></path></g><g transform="translate(1133.1666666666679 405.82190473706254) rotate(0 26.322366585328837 0.40891085072661326)"><path d="M27.53 10.81 C33.13 9.19, 41.73 4.51, 52.38 2.12 M27.53 10.81 C33.04 7.92, 40.45 6.18, 52.38 2.12" stroke="#f08c00" stroke-width="1" fill="none"></path></g><g transform="translate(1133.1666666666679 405.82190473706254) rotate(0 26.322366585328837 0.40891085072661326)"><path d="M27.76 -7.2 C33.28 -3.58, 41.81 -3.04, 52.38 2.12 M27.76 -7.2 C33.31 -5.41, 40.66 -2.48, 52.38 2.12" stroke="#f08c00" stroke-width="1" fill="none"></path></g></g><mask></mask><g stroke-linecap="round"><g transform="translate(1186.9225109484366 463.2602471747055) rotate(0 -27.43347769643981 -1.8581916371280727)"><path d="M1.09 -1.14 C-7.91 -1.82, -45.46 -3.35, -54.69 -3.59 M0.21 0.88 C-8.88 0.37, -46.39 -1.13, -55.54 -1.99" stroke="#f08c00" stroke-width="1" fill="none"></path></g><g transform="translate(1186.9225109484366 463.2602471747055) rotate(0 -27.43347769643981 -1.8581916371280727)"><path d="M-29.16 -9.75 C-37.49 -7.31, -41.86 -4.68, -55.54 -1.99 M-29.16 -9.75 C-39.74 -6.66, -49.35 -4.61, -55.54 -1.99" stroke="#f08c00" stroke-width="1" fill="none"></path></g><g transform="translate(1186.9225109484366 463.2602471747055) rotate(0 -27.43347769643981 -1.8581916371280727)"><path d="M-30.35 9.02 C-38.46 6.85, -42.54 4.88, -55.54 -1.99 M-30.35 9.02 C-40.57 4.71, -49.71 -0.65, -55.54 -1.99" stroke="#f08c00" stroke-width="1" fill="none"></path></g></g><mask></mask></svg>